<svg xmlns="http://www.w3.org/2000/svg" viewBox="0 0 470.54 186.74"><defs><style>.cls-1{fill:#ced4d8;}.cls-2{fill:#fbb03b;}.cls-3,.cls-4{fill:#fff;}.cls-4{font-size:36.39px;font-family:Quicksand-Bold, Quicksand;font-weight:700;}.cls-5{letter-spacing:-0.02em;}.cls-6{letter-spacing:0em;}</style></defs><g id="Layer_2" data-name="Layer 2"><g id="objects"><path class="cls-1" d="M159.58,129h42.69a16,16,0,0,0,0-32H159.58Z"/><path class="cls-2" d="M48.08,132.92c23.4,0,36.68-8.9,36.67-19.82S71.44,93.34,48,93.37,0,113.19,0,113.19,24.68,132.94,48.08,132.92Z"/><path class="cls-3" d="M84.76,130.67a5.31,5.31,0,0,0,5.31-5.32l0-24.51a5.31,5.31,0,0,0-5.31-5.31h0a5.32,5.32,0,0,0-5.31,5.32l0,24.52a5.3,5.3,0,0,0,5.31,5.3Z"/><path class="cls-3" d="M157.82,136.79a7.2,7.2,0,0,0,7.19-7.21l0-33.2a7.18,7.18,0,0,0-7.2-7.18h0a7.2,7.2,0,0,0-7.19,7.2l0,33.2a7.19,7.19,0,0,0,7.2,7.19Z"/><polygon class="cls-1" points="150.58 96.4 90.04 100.84 90.07 125.35 150.62 129.6 150.58 96.4"/><path class="cls-1" d="M311,129.12H268.27a16,16,0,0,1,0-32H311Z"/><path class="cls-2" d="M465.71,111.84l-40.8,0c-.66-2.92-3.72-5.13-7.42-5.13-4.17,0-5.86,2.82-5.86,6.31s1.68,6.32,5.86,6.32c3.69,0,6.75-2.21,7.42-5.13l40.8,0s-41,23-47.48,22.94-10.58-11.22-25.52-11.23V100c14.93,0,19.1-11.2,25.53-11.2S465.71,111.84,465.71,111.84Z"/><path class="cls-2" d="M465.71,109c-2.66,0-4.83,1.8-4.83,4s2.16,4,4.83,4,4.83-1.81,4.83-4S468.38,109,465.71,109Z"/><path class="cls-3" d="M389.23,130.67a5.3,5.3,0,0,1-5.3-5.32l0-24.51a5.33,5.33,0,0,1,5.32-5.31h0a5.33,5.33,0,0,1,5.31,5.32l0,24.52a5.3,5.3,0,0,1-5.32,5.3Z"/><path class="cls-3" d="M316.18,136.79a7.2,7.2,0,0,1-7.19-7.21l0-33.2a7.2,7.2,0,0,1,7.21-7.18h0a7.2,7.2,0,0,1,7.19,7.2l0,33.2a7.19,7.19,0,0,1-7.2,7.19Z"/><polygon class="cls-1" points="323.42 96.4 383.95 100.84 383.93 125.35 323.38 129.6 323.42 96.4"/><path class="cls-3" d="M47.52,0H82.34a6.31,6.31,0,0,1,4.52,1.72,5.79,5.79,0,0,1,1.82,4.41,5.36,5.36,0,0,1-1.82,4.21A6.54,6.54,0,0,1,82.34,12H53.24l.93-1.77V30.45l-.83-.83H77.66a6.31,6.31,0,0,1,4.52,1.72A5.79,5.79,0,0,1,84,35.75,5.35,5.35,0,0,1,82.18,40a6.54,6.54,0,0,1-4.52,1.61h-24l.52-.83v21l-.83-.94h29a6.14,6.14,0,0,1,4.52,1.82,5.78,5.78,0,0,1,1.82,4.21,5.53,5.53,0,0,1-1.82,4.26,6.44,6.44,0,0,1-4.52,1.66H47.52a6.22,6.22,0,0,1-6.34-6.34V6.34A6.22,6.22,0,0,1,47.52,0Z"/><path class="cls-3" d="M113.62,66.41a5.9,5.9,0,0,1-2,4.52,6.54,6.54,0,0,1-4.58,1.82,6.15,6.15,0,0,1-6.44-6.34V6.34a6,6,0,0,1,1.87-4.52A6.59,6.59,0,0,1,107.28,0a6.28,6.28,0,0,1,4.42,1.82,6,6,0,0,1,1.92,4.52Z"/><path class="cls-3" d="M169.33,60.59a6.32,6.32,0,0,1,4.52,1.72,5.8,5.8,0,0,1,1.82,4.42A5.69,5.69,0,0,1,173.85,71a6.36,6.36,0,0,1-4.52,1.71H135.55a6.22,6.22,0,0,1-6.34-6.34V6.34a6,6,0,0,1,1.87-4.52A6.59,6.59,0,0,1,135.86,0a6.28,6.28,0,0,1,4.42,1.82,6,6,0,0,1,1.92,4.52v56l-2.29-1.77Z"/><path class="cls-3" d="M227.74,60.59a6.32,6.32,0,0,1,4.52,1.72,5.8,5.8,0,0,1,1.82,4.42A5.69,5.69,0,0,1,232.26,71a6.36,6.36,0,0,1-4.52,1.71H194a6.22,6.22,0,0,1-6.34-6.34V6.34a6,6,0,0,1,1.87-4.52A6.57,6.57,0,0,1,194.27,0a6.26,6.26,0,0,1,4.42,1.82,6,6,0,0,1,1.92,4.52v56l-2.29-1.77Z"/><path class="cls-3" d="M252.37,0h34.81a6.33,6.33,0,0,1,4.53,1.72,5.78,5.78,0,0,1,1.81,4.41,5.36,5.36,0,0,1-1.81,4.21A6.56,6.56,0,0,1,287.18,12h-29.1l.94-1.77V30.45l-.83-.83h24.32A6.31,6.31,0,0,1,287,31.34a5.79,5.79,0,0,1,1.82,4.41A5.35,5.35,0,0,1,287,40a6.54,6.54,0,0,1-4.52,1.61h-24l.52-.83v21l-.83-.94h29a6.17,6.17,0,0,1,4.53,1.82,5.77,5.77,0,0,1,1.81,4.21,5.52,5.52,0,0,1-1.81,4.26,6.46,6.46,0,0,1-4.53,1.66H252.37A6.22,6.22,0,0,1,246,66.41V6.34A6.22,6.22,0,0,1,252.37,0Z"/><path class="cls-3" d="M360.66,0a5.34,5.34,0,0,1,4.06,1.66,5.85,5.85,0,0,1,1.55,4.16V66.41a6.2,6.2,0,0,1-6.33,6.34,8.47,8.47,0,0,1-2.76-.47A4.83,4.83,0,0,1,355.05,71L314.21,19.12l2.7-1.66V66.93a5.75,5.75,0,0,1-1.61,4.16,5.6,5.6,0,0,1-4.21,1.66A5.31,5.31,0,0,1,307,71.09a5.83,5.83,0,0,1-1.55-4.16V6.34A6.2,6.2,0,0,1,311.82,0a8.74,8.74,0,0,1,3,.57,4.42,4.42,0,0,1,2.29,1.72L356.71,52.8,355,54.05V5.82a5.85,5.85,0,0,1,1.56-4.16A5.44,5.44,0,0,1,360.66,0Z"/><path class="cls-3" d="M427.54,1.82a6.11,6.11,0,0,1,1.82,4.52V66.41A6.22,6.22,0,0,1,423,72.75H388.2a6.45,6.45,0,0,1-4.52-1.66,5.52,5.52,0,0,1-1.81-4.26,5.77,5.77,0,0,1,1.81-4.21,6.16,6.16,0,0,1,4.52-1.82h29l-.83.94v-21l.52.83h-24A6.54,6.54,0,0,1,388.36,40a5.35,5.35,0,0,1-1.82-4.21,5.79,5.79,0,0,1,1.82-4.41,6.31,6.31,0,0,1,4.52-1.72H417.2l-.83.83V10.18L417.3,12H388.2a6.55,6.55,0,0,1-4.52-1.61,5.36,5.36,0,0,1-1.81-4.21,5.78,5.78,0,0,1,1.81-4.41A6.32,6.32,0,0,1,388.2,0H423A6.14,6.14,0,0,1,427.54,1.82Z"/><text class="cls-4" transform="translate(50.33 175.72)"><tspan class="cls-5">K</tspan><tspan x="23.07" y="0">eith Mala</tspan><tspan class="cls-6" x="184.86" y="0">l</tspan><tspan x="194.51" y="0">uan | Arist</tspan></text></g></g></svg>