<svg xmlns="http://www.w3.org/2000/svg" viewBox="0 0 523.71 71.8"><defs><style>.cls-1{fill:#fbb03b;}.cls-2{fill:#fff;}</style></defs><g id="Layer_2" data-name="Layer 2"><g id="objects"><path class="cls-1" d="M42.77,40.28H14.65v19h33V71.09H0V0H47.56V11.87H14.65V28.81H42.77Z"/><path class="cls-1" d="M78.52,42.58l-7.62,8.2V71.09H56.25V0H70.9V32.23l6.44-8.84L95.46,0h18L88.23,31.59l26,39.5H96.78Z"/><path class="cls-2" d="M173.16,47.43H151V65.57h25.77v5.52H144.22V19.91h32.17v5.52H151V41.91h22.19Z"/><path class="cls-2" d="M184.16,23a3.87,3.87,0,0,1,1-2.67A3.64,3.64,0,0,1,188,19.2a3.72,3.72,0,0,1,2.89,1.09,3.88,3.88,0,0,1,1,2.67,3.73,3.73,0,0,1-1,2.64A3.78,3.78,0,0,1,188,26.66a3.5,3.5,0,0,1-3.83-3.7Zm7,48.13h-6.5v-38h6.5Z"/><path class="cls-2" d="M208.66,71.09h-6.5v-54h6.5Z"/><path class="cls-2" d="M226.14,71.09h-6.51v-54h6.51Z"/><path class="cls-2" d="M252.33,71.8a16.66,16.66,0,0,1-12.59-5.08q-4.85-5.09-4.85-13.59v-1.2a22.81,22.81,0,0,1,2.16-10.1,16.79,16.79,0,0,1,6-7,15.18,15.18,0,0,1,8.42-2.52q7.41,0,11.53,4.89t4.11,14v2.71H241.39A13.55,13.55,0,0,0,244.68,63a10.37,10.37,0,0,0,8,3.46,11.33,11.33,0,0,0,5.84-1.41,14.73,14.73,0,0,0,4.18-3.72l4,3.09Q261.89,71.8,252.33,71.8Zm-.81-34.1a8.66,8.66,0,0,0-6.61,2.86,13.92,13.92,0,0,0-3.3,8h19.05V48.1A12.44,12.44,0,0,0,258,40.42,8.16,8.16,0,0,0,251.52,37.7Z"/><path class="cls-2" d="M280.84,33.05l.21,4.79a13.86,13.86,0,0,1,11.39-5.49q12.06,0,12.17,13.61V71.09H298.1V45.92q0-4.11-1.88-6.08t-5.75-2a9.33,9.33,0,0,0-5.55,1.69A11.36,11.36,0,0,0,281.19,44v27.1h-6.5v-38Z"/><path class="cls-2" d="M330.2,71.8a16.66,16.66,0,0,1-12.59-5.08q-4.85-5.09-4.85-13.59v-1.2a22.81,22.81,0,0,1,2.16-10.1,16.86,16.86,0,0,1,6.05-7,15.18,15.18,0,0,1,8.42-2.52q7.42,0,11.53,4.89t4.12,14v2.71H319.27A13.54,13.54,0,0,0,322.55,63a10.37,10.37,0,0,0,8,3.46,11.33,11.33,0,0,0,5.84-1.41,14.6,14.6,0,0,0,4.18-3.72l4,3.09Q339.77,71.8,330.2,71.8Zm-.81-34.1a8.68,8.68,0,0,0-6.61,2.86,13.92,13.92,0,0,0-3.3,8h19V48.1a12.44,12.44,0,0,0-2.67-7.68A8.15,8.15,0,0,0,329.39,37.7Z"/><path class="cls-1" d="M384.41,47.29l-6.26,6.51V71.09H371.4V19.91h6.75V45.22L400.9,19.91h8.15l-20.14,22.6,21.73,28.58h-8.09Z"/><path class="cls-1" d="M430.45,71.8a16.64,16.64,0,0,1-12.59-5.08Q413,61.64,413,53.13v-1.2a22.81,22.81,0,0,1,2.16-10.1,16.79,16.79,0,0,1,6.05-7,15.16,15.16,0,0,1,8.42-2.52q7.41,0,11.53,4.89t4.11,14v2.71H419.51A13.55,13.55,0,0,0,422.8,63a10.36,10.36,0,0,0,8,3.46,11.29,11.29,0,0,0,5.83-1.41,14.63,14.63,0,0,0,4.19-3.72l4,3.09Q440,71.8,430.45,71.8Zm-.81-34.1A8.66,8.66,0,0,0,423,40.56a13.93,13.93,0,0,0-3.31,8h19.06V48.1a12.44,12.44,0,0,0-2.67-7.68A8.16,8.16,0,0,0,429.64,37.7Z"/><path class="cls-1" d="M452.84,23a3.87,3.87,0,0,1,1-2.67,3.64,3.64,0,0,1,2.86-1.09,3.69,3.69,0,0,1,2.88,1.09,3.84,3.84,0,0,1,1,2.67,3.7,3.7,0,0,1-1,2.64,3.74,3.74,0,0,1-2.88,1.06,3.5,3.5,0,0,1-3.83-3.7Zm7,48.13h-6.5v-38h6.5Z"/><path class="cls-1" d="M479.1,23.84v9.21h7.1v5h-7.1V61.7a5.28,5.28,0,0,0,.95,3.43,4,4,0,0,0,3.24,1.15,15.76,15.76,0,0,0,3.09-.42V71.1a19.23,19.23,0,0,1-5,.7q-4.36,0-6.58-2.64c-1.47-1.76-2.21-4.25-2.21-7.49V38.08h-6.93v-5h6.93V23.84Z"/><path class="cls-1" d="M500.3,37.66a13.82,13.82,0,0,1,11.25-5.31q12.06,0,12.16,13.61V71.09h-6.5V45.92q0-4.11-1.88-6.08t-5.75-2A9.33,9.33,0,0,0,504,39.56,11.36,11.36,0,0,0,500.3,44v27.1h-6.5v-54h6.5Z"/></g></g></svg>